<svg width="600" height="527" viewBox="0 0 600 527" fill="none" xmlns="http://www.w3.org/2000/svg">
    <path
    d="M425.537 61.8542C457.486 95.2724 472.91 141.544 508.898 187.815C544.887 233.719 601.441 280.358 599.972 321.488C598.503 362.25 539.379 398.239 491.638 431.29C443.898 464.708 407.542 495.556 364.209 512.448C320.875 528.974 270.932 531.177 228.7 515.386C186.468 499.228 151.581 465.076 110.084 429.821C68.5865 394.567 20.1118 358.211 5.42255 311.572C-9.63398 264.934 8.72764 208.38 35.1684 157.335C61.6091 106.289 95.7617 60.7525 140.931 33.2101C185.734 5.66765 241.553 -4.24762 293.333 1.6281C345.48 7.13659 393.587 28.4361 425.537 61.8542Z"
    fill="url(#paint0_linear)"
    />
    <defs>
    <linearGradient
        id="paint0_linear"
        x1="300"
        y1="0"
        x2="300"
        y2="526.113"
        gradientUnits="userSpaceOnUse"
    >
        <stop stop-color="#FFCFB3" />
        <stop offset="1" stop-color="#FFB4B3" />
    </linearGradient>
    </defs>
</svg>
